# xmcd
#
# Track frame offsets: 
#        150
#        9438
#        22231
#        40869
#        55380
#        73131
#        81949
#        101051
#        118261
#        127768
#        146071
#
# Disc length: 2091 seconds
#
# Revision: 1
# Processed by: cddbd v1.5.2PL0 Copyright (c) Steve Scherf et al.
# Submitted via: ExactAudioCopy v1.0b3
#
DISCID=9d08290b
DTITLE=Tony Bennett and Lady Gaga - Cheek to Cheek
DYEAR=2014
DGENRE=Jazz
TTITLE0=Anything Goes
TTITLE1=Cheek to Cheek
TTITLE2=Nature Boy
TTITLE3=I Can't Give You Anything but Love
TTITLE4=I Won't Dance
TTITLE5=Firefly
TTITLE6=Lady Gaga - Lush Life
TTITLE7=Tony Bennett - Sophisticated Lady
TTITLE8=Let's Face the Music and Dance
TTITLE9=But Beautiful
TTITLE10=It Don't Mean a Thing (If It Ain't Got That Swing)
EXTD=YEAR: 2014
EXTT0=
EXTT1=
EXTT2=
EXTT3=
EXTT4=
EXTT5=
EXTT6=
EXTT7=
EXTT8=
EXTT9=
EXTT10=
PLAYORDER=
